# xmcd
#
# Track frame offsets:
# 150
# 15224
# 28101
# 42228
# 56886
# 71578
# 85700
# 100630
# 115516
# 131019
# 145477
# 160026
# 175453
# 189816
# 217282
# 332969
#
# Disc length: 4440 seconds
#
#
# Revision: 2
# Processed by: cddbd v1.5.2PL0 Copyright (c) Steve Scherf et al.
# Submitted via: FreeRIP 2.90 
#
DISCID=dd115610
DTITLE=Edson and Hudson - (Duas Vidas, Dois Amores)
DYEAR=2006
DGENRE=Sertanejo
TTITLE0=Eu não sei dizer que eu não te amo
TTITLE1=Hoje eu posso chorar
TTITLE2=Assovia
TTITLE3=Duas vidas, dois amores
TTITLE4=Hei você aí
TTITLE5=Ela encasquetou
TTITLE6=Para sempre
TTITLE7=Eu ninca  amei uma mulher assim
TTITLE8=Que amoe é esse
TTITLE9=Nem Ilusão
TTITLE10=Foi Deus
TTITLE11=A gente vai
TTITLE12=Perdoa-me
TTITLE13=Esqueça que eu te amo
TTITLE14=Dados 15
TTITLE15=Audio 16
EXTD=YEAR: 2006
EXTT0=
EXTT1=
EXTT2=
EXTT3=
EXTT4=
EXTT5=
EXTT6=
EXTT7=
EXTT8=
EXTT9=
EXTT10=
EXTT11=
EXTT12=
EXTT13=
EXTT14=
EXTT15=
PLAYORDER=
